# xmcd
#
# Track frame offsets:
#	150
#	7640
#	16345
#	28695
#	35595
#	45165
#	51557
#	60492
#	68647
#	74722
#	83935
#	93480
#	99620
#	108887
#	112362
#	116730
#	120932
#	129500
#	137862
#	144570
#	149407
#	155842
#	163320
#	173067
#	180322
#
# Disc length: 2597 seconds
#
# Revision: 1
# Processed by: cddbd v1.5.1PL0 Copyright (c) Steve Scherf et al.
# Submitted via: CDex 1.50Beta5
#
DISCID=630a2319
DTITLE=Various Artist - 年齢別 どうよう
DYEAR=1900
DGENRE=
TTITLE0=土居 裕子/いぬのおまわりさん
TTITLE1=石田 ようこ/黒ねこダンス
TTITLE2=神崎ゆう子 坂田おさむ 天野勝弘/ボログツブギ
TTITLE3=山野 さと子/さっちゃん
TTITLE4=内田 順子/みつあみゆみちゃん
TTITLE5=森 みゆき/やまのワルツ
TTITLE6=橋本 潮 森の木児童合唱団/メリーさんのひつじ
TTITLE7=林 アキラ/しまうまグルグル
TTITLE8=林アキラ 森みゆき/あら どこだ
TTITLE9=中右貴久 橋本潮/イカイカイルカ
TTITLE10=瀬端 優美子/ツッピンとびうお
TTITLE11=林アキラ 森みゆき/くじらのとけい
TTITLE12=林アキラ スカッシュ/ぼくのミックスジュース
TTITLE13=森 みゆき/おなかのへるうた
TTITLE14=水谷 玲子/トマト
TTITLE15=濱松清香 森の木児童合唱団/ふしぎなポケット
TTITLE16=林アキラ 森みゆき/バナナのおやこ
TTITLE17=堀江 美都子/くいしんぼおばけ
TTITLE18=森 晴美/おばけなんてないさ
TTITLE19=坂田 おさむ/パパの背広
TTITLE20=橋本潮 津久井教生/レインマン
TTITLE21=山野 さと子/あめふりくまのこ
TTITLE22=益田恵 コロムビアゆりかご会/雨ふり
TTITLE23=益田恵 コロムビアゆりかご会/かたつむり
TTITLE24=かおりくみこ コロムビアゆりかご会/げんこつやまのたぬきさん
EXTD=
EXTT0=
EXTT1=
EXTT2=
EXTT3=
EXTT4=
EXTT5=
EXTT6=
EXTT7=
EXTT8=
EXTT9=
EXTT10=
EXTT11=
EXTT12=
EXTT13=
EXTT14=
EXTT15=
EXTT16=
EXTT17=
EXTT18=
EXTT19=
EXTT20=
EXTT21=
EXTT22=
EXTT23=
EXTT24=
PLAYORDER=
